<?xml version="1.0" encoding="UTF-8"?>
<svg width="82px" height="72px" viewBox="0 0 82 72" version="1.1" xmlns="http://www.w3.org/2000/svg" xmlns:xlink="http://www.w3.org/1999/xlink">
    <!-- Generator: Sketch 53.2 (72643) - https://sketchapp.com -->
    <title>first</title>
    <desc>Created with Sketch.</desc>
    <defs>
        <path d="M15.477,0.958 L66.64,0.958 L66.64,6.159 L73.945,6.159 C76.387,6.159 78.69,7.172 80.103,8.87 C81.016,9.967 81.504,11.259 81.527,12.595 L81.527,12.792 C81.521,13.109 81.49,13.429 81.431,13.749 C80.268,20.083 77.478,35.276 55.359,39.848 C54.72,40.636 54.066,41.415 53.375,42.177 C50.669,45.166 47.807,47.713 45.059,49.083 L45.059,53.672 C45.059,57.226 47.937,60.108 51.488,60.108 L51.488,65.839 L58.089,65.839 L58.089,71.569 L24.029,71.569 L24.029,65.839 L30.629,65.839 L30.629,60.108 C34.179,60.108 37.059,57.226 37.059,53.672 L37.059,49.083 C34.31,47.713 31.45,45.166 28.742,42.177 C28.052,41.415 27.397,40.636 26.759,39.848 C4.639,35.276 1.85,20.083 0.688,13.75 C0.627,13.422 0.596,13.092 0.591,12.766 L0.591,12.614 C0.609,11.271 1.097,9.973 2.015,8.87 C3.429,7.172 5.729,6.159 8.172,6.159 L15.477,6.159 L15.477,0.958 Z M66.547,11.722 C66.119,18.987 64.007,26.12 60.257,32.708 C73.16,27.882 74.958,18.169 75.954,12.742 C75.96,12.712 75.976,12.622 75.825,12.439 C75.553,12.112 74.899,11.733 73.945,11.733 L66.64,11.733 C66.608,11.733 66.579,11.726 66.547,11.722 Z M6.164,12.743 C7.16,18.17 8.957,27.882 21.859,32.708 C18.11,26.12 16,18.987 15.568,11.722 C15.539,11.726 15.509,11.733 15.477,11.733 L8.172,11.733 C7.219,11.733 6.564,12.112 6.292,12.439 C6.141,12.622 6.158,12.712 6.164,12.743 Z M44.6388,11.6445 L35.0718,11.6445 L35.0718,15.7625 L39.5068,15.7625 L39.5068,33.8205 L44.6388,33.8205 L44.6388,11.6445 Z" id="path-1"></path>
    </defs>
    <g id="Page-1" stroke="none" stroke-width="1" fill="none" fill-rule="evenodd">
        <g id="lp" transform="translate(-147.000000, -2235.000000)">
            <g id="first" transform="translate(147.000000, 2235.000000)">
                <g id="Group-13">
                    <mask id="mask-2" fill="white">
                        <use xlink:href="#path-1"></use>
                    </mask>
                    <g id="Combined-Shape"></g>
                    <polygon id="Fill-11" fill="#FFFFFF" mask="url(#mask-2)" points="-3.926 76.085 86.044 76.085 86.044 -3.56 -3.926 -3.56"></polygon>
                </g>
            </g>
        </g>
    </g>
</svg>