<?xml version="1.0" encoding="UTF-8"?>
<svg width="49px" height="43px" viewBox="0 0 49 43" version="1.1" xmlns="http://www.w3.org/2000/svg" xmlns:xlink="http://www.w3.org/1999/xlink">
    <!-- Generator: Sketch 53.2 (72643) - https://sketchapp.com -->
    <title>Group 5</title>
    <desc>Created with Sketch.</desc>
    <defs>
        <path d="M9.508,0.281 L39.912,0.281 L39.912,3.373 L44.254,3.373 C45.705,3.373 47.073,3.975 47.913,4.984 C48.454,5.633 48.744,6.397 48.76,7.188 L48.76,7.323 C48.756,7.509 48.737,7.695 48.703,7.882 C48.012,11.647 46.354,20.677 33.209,23.394 C32.829,23.861 32.439,24.325 32.03,24.778 C30.421,26.554 28.72,28.068 27.088,28.882 L27.088,31.608 C27.088,33.721 28.798,35.433 30.908,35.433 L30.908,38.839 L34.831,38.839 L34.831,42.244 L14.59,42.244 L14.59,38.839 L18.512,38.839 L18.512,35.433 C20.622,35.433 22.333,33.721 22.333,31.608 L22.333,28.882 C20.7,28.068 19,26.554 17.391,24.778 C16.981,24.325 16.592,23.861 16.212,23.394 C3.067,20.677 1.409,11.647 0.719,7.884 C0.681,7.677 0.662,7.47 0.661,7.264 L0.661,7.248 C0.663,6.436 0.953,5.65 1.507,4.984 C2.348,3.975 3.715,3.373 5.167,3.373 L9.508,3.373 L9.508,0.281 Z M39.858,6.68 C39.602,10.996 38.348,15.235 36.119,19.15 C43.787,16.282 44.856,10.51 45.449,7.285 C45.451,7.267 45.461,7.213 45.371,7.105 C45.21,6.91 44.82,6.685 44.254,6.685 L39.912,6.685 C39.894,6.685 39.877,6.681 39.858,6.68 Z M3.973,7.285 C4.564,10.51 5.633,16.282 13.301,19.15 C11.071,15.235 9.819,10.996 9.563,6.68 C9.544,6.681 9.526,6.685 9.508,6.685 L5.167,6.685 C4.6,6.685 4.211,6.91 4.049,7.105 C3.959,7.213 3.969,7.267 3.973,7.285 Z M31.1745,17.9004061 L24.7359467,17.9004061 L28.1796127,14.6498854 C29.1635172,13.736422 29.8258918,12.9240759 30.1690086,12.2105746 C30.5109893,11.4970734 30.6825477,10.7347178 30.6825477,9.92237165 C30.6825477,9.02481437 30.4496373,8.24314423 29.9872249,7.57963354 C29.5236763,6.91725899 28.8760717,6.40371988 28.0410026,6.04015238 C27.2070696,5.67658487 26.2333904,5.49366497 25.1222372,5.49366497 C23.7952158,5.49366497 22.6193021,5.74020918 21.5922239,6.23102532 C20.5651457,6.72411375 19.7596165,7.40580282 19.1745,8.27495639 L21.6990219,9.90078483 C22.0557725,9.40201566 22.4977342,9.02708667 23.0249071,8.77827016 C23.5532162,8.5283175 24.1451495,8.40334117 24.8007072,8.40334117 C25.5846496,8.40334117 26.1799914,8.5635381 26.5867325,8.88393196 C26.9923375,9.20546198 27.1957081,9.6656021 27.1957081,10.2643523 C27.1957081,10.6790465 27.0889101,11.096013 26.8753142,11.5163879 C26.6605822,11.9367629 26.2481603,12.4389405 25.6346401,13.0240569 L19.8595975,18.4775695 L19.8595975,20.723735 L31.1745,20.723735 L31.1745,17.9004061 Z" id="path-1"></path>
    </defs>
    <g id="Page-1" stroke="none" stroke-width="1" fill="none" fill-rule="evenodd">
        <g id="lp" transform="translate(-93.000000, -2400.000000)">
            <g id="Group-5" transform="translate(93.000000, 2400.000000)">
                <g id="Group-8">
                    <mask id="mask-2" fill="white">
                        <use xlink:href="#path-1"></use>
                    </mask>
                    <g id="Combined-Shape"></g>
                    <polygon id="Fill-6" fill="#FFFFFF" mask="url(#mask-2)" points="-2.023 44.928 51.445 44.928 51.445 -2.403 -2.023 -2.403"></polygon>
                </g>
            </g>
        </g>
    </g>
</svg>