<svg width="174" height="30" xmlns="http://www.w3.org/2000/svg" xmlns:xlink="http://www.w3.org/1999/xlink">
    <defs>
        <linearGradient x1="14.852%" y1="63.903%" x2="77.394%" y2="34.937%" id="b">
            <stop stop-color="#BD0167" offset="0%"/>
            <stop stop-color="#E25449" offset="100%"/>
        </linearGradient>
        <path d="M18.508.59h-3.364c-1.904 0-3.364.483-4.382 1.452C9.745 3.011 9.045 4.6 8.661 6.81l-.312 1.805-.415 2.561L5.166 30h2.757l2.823-18.824.361-2.561.344-2.051c.174-1.182.552-2.065 1.133-2.651.579-.584 1.368-.878 2.363-.878h3.517c.243 0 .431.217.394.458l-.58 3.842h2.987l1.098-7.28S20.361.59 18.508.59zm31.826 4.841l-.475 3.184h-4.398l.443-3.184h-2.987l-.476 3.184H12.66l-.361 2.561h14.265c.24 0 .362.281.202.459-.176.198-.348.405-.516.624a9.677 9.677 0 00-1.435 2.725 9.335 9.335 0 00-.501 3.019c0 1.75.489 3.2 1.469 4.349.979 1.149 2.203 1.723 3.668 1.723.766 0 1.477-.177 2.134-.533.656-.355 1.28-.905 1.871-1.649l-.279 1.886h2.856l1.805-12.262a.398.398 0 01.395-.341h3.43c.254 0 .444.234.39.482l-.975 7.264a8.242 8.242 0 00-.083 1.1c0 1.225.381 2.213 1.141 2.962.76.749 1.749 1.124 2.962 1.124.503 0 1.114-.058 1.684-.216.568-.16 2.04-.667 2.687-.996l-.005-.007.089.095c.761.749 1.749 1.124 2.963 1.124.503 0 1.039-.079 1.609-.238a9.933 9.933 0 001.821-.73v-2.659a6.54 6.54 0 01-1.354.665 3.723 3.723 0 01-1.19.221c-.634 0-1.108-.155-1.419-.468-.312-.311-.469-.785-.469-1.419 0-.251.023-.547.067-.886l.939-7.103a.4.4 0 01.391-.315h11.44l.306-2.561H52.879l.443-3.184h-2.988zm-5.769 15.468c-.311-.311-.468-.785-.468-1.419 0-.251.022-.547.066-.886l.94-7.103a.397.397 0 01.39-.315h3.587a.4.4 0 01.391.482l-.975 7.264a8.078 8.078 0 00-.083 1.1c0 .176.011.346.026.513-.438.267-.86.473-1.265.611a3.718 3.718 0 01-1.19.221c-.634 0-1.107-.155-1.419-.468zm-16.32-.327c-.542-.728-.813-1.688-.813-2.881 0-1.937.635-3.523 1.904-4.759 1.269-1.236 2.911-1.756 4.923-1.756h.306c.242 0 .426.213.392.451l-1.075 7.476c-.503.853-1.05 1.493-1.641 1.92-.591.426-1.22.64-1.887.64-.865 0-1.568-.364-2.109-1.091zM.378 8.615L0 11.176h6.377l.395-2.561H.378zm17.125 3.854l-1.704 11.31h2.986l1.706-11.31h-2.988z" id="a"/>
    </defs>
    <g fill="none" fill-rule="evenodd">
        <g transform="translate(0 -.055)">
            <mask id="c" fill="#fff">
                <use xlink:href="#a"/>
            </mask>
            <path d="M18.508.59h-3.364c-1.904 0-3.364.483-4.382 1.452C9.745 3.011 9.045 4.6 8.661 6.81l-.312 1.805-.415 2.561L5.166 30h2.757l2.823-18.824.361-2.561.344-2.051c.174-1.182.552-2.065 1.133-2.651.579-.584 1.368-.878 2.363-.878h3.517c.243 0 .431.217.394.458l-.58 3.842h2.987l1.098-7.28S20.361.59 18.508.59zm31.826 4.841l-.475 3.184h-4.398l.443-3.184h-2.987l-.476 3.184H12.66l-.361 2.561h14.265c.24 0 .362.281.202.459-.176.198-.348.405-.516.624a9.677 9.677 0 00-1.435 2.725 9.335 9.335 0 00-.501 3.019c0 1.75.489 3.2 1.469 4.349.979 1.149 2.203 1.723 3.668 1.723.766 0 1.477-.177 2.134-.533.656-.355 1.28-.905 1.871-1.649l-.279 1.886h2.856l1.805-12.262a.398.398 0 01.395-.341h3.43c.254 0 .444.234.39.482l-.975 7.264a8.242 8.242 0 00-.083 1.1c0 1.225.381 2.213 1.141 2.962.76.749 1.749 1.124 2.962 1.124.503 0 1.114-.058 1.684-.216.568-.16 2.04-.667 2.687-.996l-.005-.007.089.095c.761.749 1.749 1.124 2.963 1.124.503 0 1.039-.079 1.609-.238a9.933 9.933 0 001.821-.73v-2.659a6.54 6.54 0 01-1.354.665 3.723 3.723 0 01-1.19.221c-.634 0-1.108-.155-1.419-.468-.312-.311-.469-.785-.469-1.419 0-.251.023-.547.067-.886l.939-7.103a.4.4 0 01.391-.315h11.44l.306-2.561H52.879l.443-3.184h-2.988zm-5.769 15.468c-.311-.311-.468-.785-.468-1.419 0-.251.022-.547.066-.886l.94-7.103a.397.397 0 01.39-.315h3.587a.4.4 0 01.391.482l-.975 7.264a8.078 8.078 0 00-.083 1.1c0 .176.011.346.026.513-.438.267-.86.473-1.265.611a3.718 3.718 0 01-1.19.221c-.634 0-1.107-.155-1.419-.468zm-16.32-.327c-.542-.728-.813-1.688-.813-2.881 0-1.937.635-3.523 1.904-4.759 1.269-1.236 2.911-1.756 4.923-1.756h.306c.242 0 .426.213.392.451l-1.075 7.476c-.503.853-1.05 1.493-1.641 1.92-.591.426-1.22.64-1.887.64-.865 0-1.568-.364-2.109-1.091zM.378 8.615L0 11.176h6.377l.395-2.561H.378zm17.125 3.854l-1.704 11.31h2.986l1.706-11.31h-2.988z" fill="url(#b)" mask="url(#c)"/>
        </g>
        <g fill="#FFF">
            <path d="M78.273 9.57l-.473 2.89c-.132-.107-.374-.25-.724-.437a7.488 7.488 0 00-1.193-.494 4.348 4.348 0 00-1.349-.215c-.477 0-.844.13-1.103.39-.26.258-.388.558-.388.902 0 .301.086.572.262.814.175.242.626.66 1.355 1.255 1.08.862 1.82 1.613 2.226 2.253.407.641.61 1.368.61 2.18a4.72 4.72 0 01-.462 1.996c-.309.665-.835 1.226-1.58 1.681-.746.455-1.736.682-2.968.682a8.792 8.792 0 01-2.616-.383c-.826-.255-1.502-.548-2.028-.877l.452-2.952c1.506.945 2.731 1.42 3.677 1.42.595 0 1.017-.167 1.266-.496.248-.329.373-.686.373-1.07 0-.428-.136-.8-.404-1.12-.27-.318-.91-.937-1.918-1.854-.603-.546-1.064-1.03-1.386-1.455-.322-.423-.527-.795-.615-1.113a4.13 4.13 0 01-.13-1.087c0-.47.09-.936.272-1.402.182-.466.467-.894.856-1.282.388-.389.885-.699 1.492-.93.605-.23 1.314-.347 2.127-.347 1.477 0 2.933.351 4.37 1.051M91.175 8.72l-.367 2.595h-5.894l-.45 3.16h5.115l-.368 2.606h-5.157l-.494 3.593h7.164l-.367 2.605H79.443l2.11-14.56zM105.705 9.035l-.62 3.276a12.452 12.452 0 00-2.48-.546 9.71 9.71 0 00-1.07-.062c-.7 0-1.371.113-2.012.341-.64.227-1.213.56-1.716.998a4.56 4.56 0 00-1.172 1.555 4.58 4.58 0 00-.415 1.948c0 .701.154 1.33.463 1.886a3.3 3.3 0 001.286 1.302 3.624 3.624 0 001.822.467c1.709 0 3.474-.644 5.295-1.933l-.662 4.024c-.344.14-.733.291-1.166.451a16.48 16.48 0 01-1.103.373 9.696 9.696 0 01-1.14.242 8.846 8.846 0 01-1.413.111 9.078 9.078 0 01-2.757-.41 6.842 6.842 0 01-2.337-1.27A5.833 5.833 0 0192.9 19.68c-.378-.83-.566-1.774-.566-2.832 0-.86.144-1.758.435-2.694.29-.934.78-1.83 1.47-2.688.69-.859 1.652-1.564 2.884-2.118 1.233-.552 2.738-.83 4.518-.83.72 0 1.357.041 1.91.121a39.59 39.59 0 012.154.395M123.16 8.72l-1.291 8.896c-.183 1.29-.601 2.372-1.255 3.247a5.973 5.973 0 01-2.526 1.959c-1.03.43-2.2.646-3.51.646-1.742 0-3.137-.294-4.18-.883-1.044-.588-1.773-1.292-2.19-2.111-.416-.82-.625-1.608-.625-2.363 0-.623.067-1.345.2-2.164l1.093-7.227h3.697l-1.114 7.604a6.728 6.728 0 00-.094 1.104c0 .79.228 1.45.683 1.98.455.529 1.292.792 2.509.792.617 0 1.17-.095 1.66-.288a2.91 2.91 0 001.26-.977c.35-.458.589-1.076.715-1.854l1.272-8.361h3.697zM133.1 12.932c0-.561-.204-1.05-.614-1.465-.409-.417-1.239-.625-2.485-.625h-.577l-.609 4.2h1.471c1.036 0 1.764-.217 2.184-.655.42-.437.63-.923.63-1.455zm4.37 10.347h-4.065l-1.45-3.036c-.426-.917-.797-1.605-1.113-2.064-.315-.46-.592-.742-.83-.851-.238-.108-.557-.163-.956-.163h-.557l-.924 6.114h-3.687L126 8.719h5.683c2.066 0 3.468.456 4.207 1.366.74.91 1.108 1.895 1.108 2.952 0 1.114-.306 1.98-.918 2.6-.614.62-1.469 1.003-2.569 1.15.56.323.993.7 1.297 1.134.305.435.667 1.11 1.088 2.028l1.575 3.33zM144.834 8.72l-2.175 14.559h-3.728l2.153-14.56zM159.997 8.72l-.431 2.962h-4.706l-1.744 11.597h-3.697l1.712-11.597h-4.685l.452-2.962zM174 8.72l-5.966 8.97-.841 5.589h-3.718l.862-5.725-3.288-8.834h3.697l1.743 5.609 3.489-5.61z"/>
        </g>
    </g>
</svg>
