<?xml version="1.0" encoding="utf-8"?>
<!-- Generator: Adobe Illustrator 24.1.2, SVG Export Plug-In . SVG Version: 6.00 Build 0)  -->
<svg version="1.1" id="レイヤー_1" xmlns="http://www.w3.org/2000/svg" xmlns:xlink="http://www.w3.org/1999/xlink" x="0px"
	 y="0px" viewBox="0 0 252.4 73.7" style="enable-background:new 0 0 252.4 73.7;" xml:space="preserve">
<style type="text/css">
	.st0{fill:none;}
	.st1{fill:#EBFF30;}
	.st2{fill:#FAFAFA;}
</style>
<g id="Page-1">
	<g id="lp" transform="translate(-62 -197)">
		<path id="TSGCTF" class="st0" d="M0,0"/>
	</g>
</g>
<path class="st1" d="M104.4,73.3H89.9v-3.1c1.1-0.8,2.2-1.7,3.3-2.6c1.1-0.9,2-1.7,2.7-2.3c1-1,1.7-1.8,2.1-2.5s0.6-1.4,0.6-2.1
	c0-0.8-0.3-1.5-0.8-2S96.5,58,95.5,58c-0.8,0-1.6,0.2-2.4,0.5s-1.6,0.7-2.3,1.2h-0.4v-4.1c0.6-0.3,1.5-0.5,2.6-0.8s2.3-0.4,3.4-0.4
	c2.3,0,4.1,0.5,5.3,1.5c1.2,1,1.8,2.3,1.8,4.1c0,1.2-0.3,2.3-0.9,3.3c-0.6,1.1-1.5,2.1-2.7,3.3c-0.8,0.7-1.5,1.3-2.3,1.9
	s-1.3,1-1.6,1.2h8.3L104.4,73.3C104.3,73.3,104.4,73.3,104.4,73.3z M127.4,64.1c0,1.6-0.1,3-0.4,4.2s-0.7,2.2-1.3,3
	c-0.6,0.8-1.4,1.4-2.4,1.8s-2.1,0.6-3.6,0.6c-1.4,0-2.6-0.2-3.5-0.6c-1-0.4-1.8-1-2.4-1.8s-1.1-1.8-1.3-3c-0.3-1.2-0.4-2.6-0.4-4.1
	c0-1.6,0.1-3,0.4-4.2s0.7-2.2,1.3-3c0.6-0.8,1.4-1.4,2.4-1.8c1-0.4,2.1-0.6,3.5-0.6s2.6,0.2,3.6,0.6s1.7,1,2.4,1.9
	c0.6,0.8,1,1.8,1.3,3S127.4,62.5,127.4,64.1z M122.6,64.1c0-2.2-0.2-3.8-0.7-4.8s-1.2-1.4-2.2-1.4s-1.7,0.5-2.2,1.4
	c-0.4,0.9-0.7,2.5-0.7,4.8c0,2.2,0.2,3.8,0.7,4.7s1.2,1.5,2.2,1.5s1.7-0.5,2.2-1.5S122.6,66.3,122.6,64.1z M150.7,73.3h-14.5v-3.1
	c1.1-0.8,2.2-1.7,3.3-2.6s2-1.7,2.7-2.3c1-1,1.7-1.8,2.1-2.5s0.6-1.4,0.6-2.1c0-0.8-0.3-1.5-0.8-2s-1.3-0.7-2.3-0.7
	c-0.8,0-1.6,0.2-2.4,0.5c-0.8,0.3-1.6,0.7-2.3,1.2h-0.4v-4.1c0.6-0.3,1.5-0.5,2.6-0.8s2.3-0.4,3.4-0.4c2.3,0,4.1,0.5,5.3,1.5
	s1.8,2.3,1.8,4.1c0,1.2-0.3,2.3-0.9,3.3c-0.6,1.1-1.5,2.1-2.7,3.3c-0.8,0.7-1.5,1.3-2.3,1.9s-1.3,1-1.6,1.2h8.3L150.7,73.3
	L150.7,73.3z M173.7,64.1c0,1.6-0.1,3-0.4,4.2s-0.7,2.2-1.3,3s-1.4,1.4-2.4,1.8s-2.1,0.6-3.6,0.6c-1.4,0-2.6-0.2-3.5-0.6
	s-1.8-1-2.4-1.8c-0.6-0.8-1.1-1.8-1.3-3c-0.3-1.2-0.4-2.6-0.4-4.1c0-1.6,0.1-3,0.4-4.2c0.3-1.2,0.7-2.2,1.3-3s1.4-1.4,2.4-1.8
	c1-0.4,2.1-0.6,3.5-0.6s2.6,0.2,3.6,0.6s1.7,1,2.4,1.9c0.6,0.8,1,1.8,1.3,3S173.7,62.5,173.7,64.1z M168.9,64.1
	c0-2.2-0.2-3.8-0.7-4.8c-0.4-0.9-1.2-1.4-2.2-1.4s-1.7,0.5-2.2,1.4s-0.7,2.5-0.7,4.8c0,2.2,0.2,3.8,0.7,4.7s1.2,1.5,2.2,1.5
	s1.7-0.5,2.2-1.5C168.7,67.9,168.9,66.3,168.9,64.1z"/>
<g id="Page-1_1_">
	<g id="lp_1_" transform="translate(-62.000000, -197.000000)">
		<path id="TSGCTF_1_" class="st2" d="M74.9,206.1H62v-7.9h35.1v7.9H84.3V241h-9.4V206.1z M108.5,226.8c0,1.4,0.3,2.7,0.8,3.7
			s1.2,1.8,2.1,2.4c0.9,0.6,1.9,1.1,3,1.4c1.2,0.3,2.4,0.4,3.6,0.4c0.8,0,1.7-0.1,2.7-0.2s1.9-0.4,2.7-0.8c0.8-0.4,1.5-0.9,2.1-1.6
			c0.6-0.7,0.8-1.6,0.8-2.7c0-1.2-0.4-2.1-1.1-2.8c-0.7-0.7-1.7-1.3-2.9-1.8c-1.2-0.5-2.6-0.9-4.1-1.3c-1.5-0.4-3.1-0.8-4.6-1.2
			c-1.6-0.4-3.2-0.9-4.7-1.5c-1.5-0.6-2.9-1.3-4.1-2.3c-1.2-0.9-2.2-2.1-2.9-3.4s-1.1-3-1.1-5c0-2.2,0.5-4.1,1.4-5.7
			c0.9-1.6,2.2-3,3.7-4c1.5-1.1,3.2-1.9,5.2-2.4c1.9-0.5,3.8-0.8,5.8-0.8c2.2,0,4.4,0.3,6.4,0.8s3.9,1.3,5.5,2.4
			c1.6,1.1,2.9,2.5,3.8,4.3s1.4,3.8,1.4,6.3h-9.1c-0.1-1.3-0.3-2.3-0.8-3.2c-0.5-0.8-1.1-1.5-1.8-2c-0.8-0.5-1.6-0.8-2.6-1
			c-1-0.2-2-0.3-3.2-0.3c-0.8,0-1.5,0.1-2.3,0.2s-1.4,0.4-2.1,0.8c-0.6,0.4-1.1,0.9-1.5,1.5c-0.4,0.6-0.6,1.4-0.6,2.3
			c0,0.8,0.2,1.5,0.5,2c0.3,0.5,0.9,1,1.9,1.4c0.9,0.4,2.2,0.9,3.9,1.3c1.7,0.4,3.8,1,6.5,1.7c0.8,0.2,1.9,0.4,3.3,0.9
			s2.8,1.1,4.2,2c1.4,0.9,2.6,2.1,3.6,3.7s1.5,3.5,1.5,5.9c0,2-0.4,3.8-1.1,5.5c-0.8,1.7-1.9,3.1-3.4,4.3c-1.5,1.2-3.4,2.2-5.6,2.9
			s-4.8,1-7.7,1c-2.4,0-4.6-0.3-6.9-0.9s-4.2-1.5-5.9-2.7c-1.7-1.2-3-2.8-4.1-4.7c-1-1.9-1.5-4.2-1.4-6.8H108.5z M171.9,236.1
			c-1.7,2.2-3.5,3.7-5.6,4.5s-4.1,1.3-6.2,1.3c-3.3,0-6.2-0.6-8.8-1.7s-4.8-2.7-6.6-4.7c-1.8-2-3.2-4.3-4.1-7s-1.4-5.6-1.4-8.7
			c0-3.2,0.5-6.2,1.4-8.9c1-2.7,2.3-5.1,4.1-7.2c1.8-2,4-3.6,6.6-4.8s5.6-1.7,8.8-1.7c2.2,0,4.3,0.3,6.4,1c2.1,0.7,3.9,1.6,5.6,2.9
			c1.7,1.3,3,2.9,4.1,4.7c1.1,1.9,1.7,4,2,6.5h-9c-0.6-2.4-1.6-4.2-3.2-5.4s-3.5-1.8-5.8-1.8c-2.1,0-3.9,0.4-5.4,1.2
			c-1.5,0.8-2.7,1.9-3.6,3.3c-0.9,1.4-1.6,2.9-2,4.7s-0.6,3.6-0.6,5.5c0,1.8,0.2,3.6,0.6,5.3c0.4,1.7,1.1,3.2,2,4.6
			c0.9,1.4,2.1,2.4,3.6,3.3c1.5,0.8,3.3,1.2,5.4,1.2c3.1,0,5.5-0.8,7.2-2.4c1.7-1.6,2.7-3.9,3-6.9h-9.5v-7h18V241h-6L171.9,236.1z
			 M231.8,212.6c-0.2-1.1-0.5-2.1-1.1-3c-0.6-0.9-1.3-1.7-2.1-2.4c-0.8-0.7-1.8-1.2-2.9-1.6c-1.1-0.4-2.2-0.6-3.3-0.6
			c-2.1,0-3.9,0.4-5.4,1.2c-1.5,0.8-2.7,1.9-3.6,3.3c-0.9,1.4-1.6,2.9-2,4.7s-0.6,3.6-0.6,5.5c0,1.8,0.2,3.6,0.6,5.3
			c0.4,1.7,1.1,3.2,2,4.6c0.9,1.4,2.1,2.4,3.6,3.3c1.5,0.8,3.3,1.2,5.4,1.2c2.9,0,5.1-0.9,6.8-2.6c1.6-1.8,2.6-4.1,3-7h9.1
			c-0.2,2.7-0.9,5.1-1.9,7.3c-1,2.2-2.3,4-4,5.5c-1.6,1.5-3.6,2.7-5.8,3.5s-4.6,1.2-7.3,1.2c-3.3,0-6.2-0.6-8.8-1.7
			s-4.8-2.7-6.6-4.7c-1.8-2-3.2-4.3-4.1-7s-1.4-5.6-1.4-8.7c0-3.2,0.5-6.2,1.4-8.9c1-2.7,2.3-5.1,4.1-7.2c1.8-2,4-3.6,6.6-4.8
			s5.6-1.7,8.8-1.7c2.4,0,4.6,0.3,6.7,1c2.1,0.7,4,1.7,5.6,3c1.7,1.3,3,2.9,4.1,4.8c1.1,1.9,1.8,4.1,2,6.6H231.8z M257.1,206.1
			h-12.8v-7.9h35.1v7.9h-12.8V241h-9.4V206.1z M284.3,198.2h30.1v7.9h-20.7v9.9h17.9v7.3h-17.9V241h-9.4V198.2z"/>
	</g>
</g>
</svg>
