<?xml version="1.0" encoding="utf-8"?>
<!-- Generator: Adobe Illustrator 28.0.0, SVG Export Plug-In . SVG Version: 6.00 Build 0)  -->
<svg version="1.1" id="レイヤー_1" xmlns="http://www.w3.org/2000/svg" xmlns:xlink="http://www.w3.org/1999/xlink" x="0px"
	 y="0px" viewBox="0 0 252.4 73.7" style="enable-background:new 0 0 252.4 73.7;" xml:space="preserve">
<style type="text/css">
	.st0{fill:#FAFAFA;}
	.st1{fill:#B57777;}
</style>
<g id="lp_1_" transform="translate(-62 -197)">
	<path id="TSGCTF_1_" class="st0" d="M74.9,206.1H62v-7.9h35.1v7.9H84.3V241h-9.4V206.1z M108.5,226.8c0,1.4,0.3,2.7,0.8,3.7
		s1.2,1.8,2.1,2.4c0.9,0.6,1.9,1.1,3,1.4c1.2,0.3,2.4,0.4,3.6,0.4c0.8,0,1.7-0.1,2.7-0.2s1.9-0.4,2.7-0.8c0.8-0.4,1.5-0.9,2.1-1.6
		c0.6-0.7,0.8-1.6,0.8-2.7c0-1.2-0.4-2.1-1.1-2.8s-1.7-1.3-2.9-1.8s-2.6-0.9-4.1-1.3c-1.5-0.4-3.1-0.8-4.6-1.2
		c-1.6-0.4-3.2-0.9-4.7-1.5s-2.9-1.3-4.1-2.3c-1.2-0.9-2.2-2.1-2.9-3.4s-1.1-3-1.1-5c0-2.2,0.5-4.1,1.4-5.7c0.9-1.6,2.2-3,3.7-4
		c1.5-1.1,3.2-1.9,5.2-2.4c1.9-0.5,3.8-0.8,5.8-0.8c2.2,0,4.4,0.3,6.4,0.8s3.9,1.3,5.5,2.4c1.6,1.1,2.9,2.5,3.8,4.3s1.4,3.8,1.4,6.3
		h-9.1c-0.1-1.3-0.3-2.3-0.8-3.2c-0.5-0.8-1.1-1.5-1.8-2c-0.8-0.5-1.6-0.8-2.6-1s-2-0.3-3.2-0.3c-0.8,0-1.5,0.1-2.3,0.2
		s-1.4,0.4-2.1,0.8c-0.6,0.4-1.1,0.9-1.5,1.5s-0.6,1.4-0.6,2.3c0,0.8,0.2,1.5,0.5,2s0.9,1,1.9,1.4c0.9,0.4,2.2,0.9,3.9,1.3
		c1.7,0.4,3.8,1,6.5,1.7c0.8,0.2,1.9,0.4,3.3,0.9s2.8,1.1,4.2,2s2.6,2.1,3.6,3.7s1.5,3.5,1.5,5.9c0,2-0.4,3.8-1.1,5.5
		c-0.8,1.7-1.9,3.1-3.4,4.3s-3.4,2.2-5.6,2.9s-4.8,1-7.7,1c-2.4,0-4.6-0.3-6.9-0.9s-4.2-1.5-5.9-2.7c-1.7-1.2-3-2.8-4.1-4.7
		c-1-1.9-1.5-4.2-1.4-6.8L108.5,226.8L108.5,226.8z M171.9,236.1c-1.7,2.2-3.5,3.7-5.6,4.5s-4.1,1.3-6.2,1.3c-3.3,0-6.2-0.6-8.8-1.7
		s-4.8-2.7-6.6-4.7s-3.2-4.3-4.1-7s-1.4-5.6-1.4-8.7c0-3.2,0.5-6.2,1.4-8.9c1-2.7,2.3-5.1,4.1-7.2c1.8-2,4-3.6,6.6-4.8
		s5.6-1.7,8.8-1.7c2.2,0,4.3,0.3,6.4,1c2.1,0.7,3.9,1.6,5.6,2.9c1.7,1.3,3,2.9,4.1,4.7c1.1,1.9,1.7,4,2,6.5h-9
		c-0.6-2.4-1.6-4.2-3.2-5.4s-3.5-1.8-5.8-1.8c-2.1,0-3.9,0.4-5.4,1.2s-2.7,1.9-3.6,3.3c-0.9,1.4-1.6,2.9-2,4.7s-0.6,3.6-0.6,5.5
		c0,1.8,0.2,3.6,0.6,5.3c0.4,1.7,1.1,3.2,2,4.6c0.9,1.4,2.1,2.4,3.6,3.3c1.5,0.8,3.3,1.2,5.4,1.2c3.1,0,5.5-0.8,7.2-2.4
		c1.7-1.6,2.7-3.9,3-6.9h-9.5v-7h18V241h-6L171.9,236.1z M231.8,212.6c-0.2-1.1-0.5-2.1-1.1-3s-1.3-1.7-2.1-2.4s-1.8-1.2-2.9-1.6
		c-1.1-0.4-2.2-0.6-3.3-0.6c-2.1,0-3.9,0.4-5.4,1.2s-2.7,1.9-3.6,3.3c-0.9,1.4-1.6,2.9-2,4.7s-0.6,3.6-0.6,5.5
		c0,1.8,0.2,3.6,0.6,5.3c0.4,1.7,1.1,3.2,2,4.6c0.9,1.4,2.1,2.4,3.6,3.3c1.5,0.8,3.3,1.2,5.4,1.2c2.9,0,5.1-0.9,6.8-2.6
		c1.6-1.8,2.6-4.1,3-7h9.1c-0.2,2.7-0.9,5.1-1.9,7.3s-2.3,4-4,5.5c-1.6,1.5-3.6,2.7-5.8,3.5s-4.6,1.2-7.3,1.2
		c-3.3,0-6.2-0.6-8.8-1.7s-4.8-2.7-6.6-4.7s-3.2-4.3-4.1-7s-1.4-5.6-1.4-8.7c0-3.2,0.5-6.2,1.4-8.9c1-2.7,2.3-5.1,4.1-7.2
		c1.8-2,4-3.6,6.6-4.8s5.6-1.7,8.8-1.7c2.4,0,4.6,0.3,6.7,1c2.1,0.7,4,1.7,5.6,3c1.7,1.3,3,2.9,4.1,4.8c1.1,1.9,1.8,4.1,2,6.6h-8.9
		L231.8,212.6L231.8,212.6z M257.1,206.1h-12.8v-7.9h35.1v7.9h-12.8V241h-9.4v-34.9H257.1z M284.3,198.2h30.1v7.9h-20.7v9.9h17.9
		v7.3h-17.9V241h-9.4V198.2L284.3,198.2z"/>
</g>
<g>
	<path class="st1" d="M91.8,73.3v-3.7c2.9-1.5,5-3.1,6.4-4.8c1.4-1.7,2.1-3.4,2.1-5.1c0-0.9-0.2-1.5-0.7-2s-1.1-0.7-2-0.7
		c-0.8,0-1.6,0.2-2.4,0.6c-0.8,0.4-1.6,1-2.2,1.7l-2.1-2.5c0.7-1,1.6-1.8,2.9-2.4s2.5-0.9,3.9-0.9c2.1,0,3.7,0.5,4.8,1.5
		c1.1,1,1.6,2.4,1.6,4.4c0,1.8-0.5,3.6-1.6,5.3c-1.1,1.7-2.7,3.3-4.9,4.9v3.7H91.8z M92.6,73.3v-3.2h12.3v3.2H92.6z"/>
	<path class="st1" d="M120.2,73.5c-4.6,0-6.9-3.3-6.9-9.9c0-6.8,2.3-10.1,6.9-10.1s6.9,3.4,6.9,10.1C127,70.3,124.7,73.5,120.2,73.5
		z M120.2,70.1c2.1,0,3.1-2.1,3.1-6.4c0-4.5-1-6.7-3.1-6.7c-2.1,0-3.2,2.2-3.2,6.7C117,68,118,70.1,120.2,70.1z M120.1,66.2
		c-0.5,0-1-0.2-1.3-0.7s-0.5-1.1-0.5-1.8c0-0.8,0.2-1.4,0.5-1.8c0.3-0.5,0.8-0.7,1.3-0.7s1,0.2,1.3,0.7c0.3,0.5,0.5,1.1,0.5,1.8
		c0,0.8-0.2,1.4-0.5,1.8S120.7,66.2,120.1,66.2z"/>
	<path class="st1" d="M135.8,73.3v-3.7c2.9-1.5,5-3.1,6.4-4.8c1.4-1.7,2.1-3.4,2.1-5.1c0-0.9-0.2-1.5-0.7-2s-1.1-0.7-2-0.7
		c-0.8,0-1.6,0.2-2.4,0.6c-0.8,0.4-1.6,1-2.2,1.7l-2.1-2.5c0.7-1,1.6-1.8,2.9-2.4c1.2-0.6,2.5-0.9,3.9-0.9c2.1,0,3.7,0.5,4.8,1.5
		c1.1,1,1.6,2.4,1.6,4.4c0,1.8-0.5,3.6-1.6,5.3c-1.1,1.7-2.7,3.3-4.9,4.9v3.7H135.8z M136.7,73.3v-3.2H149v3.2H136.7z"/>
	<path class="st1" d="M161.2,65.1l-0.3-3.1c1.3-0.2,2.3-0.4,3.1-0.7c0.8-0.3,1.4-0.7,1.8-1.1c0.4-0.4,0.6-0.9,0.6-1.5
		c0-0.5-0.2-0.9-0.5-1.2c-0.3-0.3-0.9-0.4-1.5-0.4c-0.7,0-1.5,0.1-2.4,0.4c-0.9,0.3-1.7,0.7-2.5,1.3l-1.9-2.8c0.9-0.8,1.9-1.4,3-1.8
		c1.1-0.4,2.4-0.6,3.8-0.6c1.9,0,3.3,0.4,4.3,1.1c1,0.8,1.5,1.8,1.5,3.2c0,1.2-0.4,2.3-1.3,3.2s-1.9,1.5-3.3,1.9v1.4L161.2,65.1z
		 M163.1,73.5c-1,0-2-0.1-2.9-0.2s-1.7-0.3-2.3-0.5l0.3-3.5c0.6,0.2,1.3,0.3,2,0.5c0.7,0.2,1.7,0.3,2.8,0.3c1.2,0,2.1-0.2,2.8-0.6
		c0.7-0.4,1-1,1-1.8c0-0.6-0.2-1-0.6-1.4c-0.4-0.4-1-0.7-1.7-0.9c-0.8-0.2-1.7-0.3-2.8-0.3h-0.4l-0.3-3.1l4,1.5
		c1.7,0,3.1,0.4,4.1,1.3c1.1,0.8,1.6,2,1.6,3.4c0,1.7-0.7,3.1-2,4C167.3,73.1,165.5,73.5,163.1,73.5z"/>
</g>
</svg>
