<?xml version="1.0" encoding="UTF-8" standalone="no"?>
<!DOCTYPE svg PUBLIC "-//W3C//DTD SVG 1.1//EN" "http://www.w3.org/Graphics/SVG/1.1/DTD/svg11.dtd">
<svg width="100%" height="100%" viewBox="0 0 1200 630" version="1.1" xmlns="http://www.w3.org/2000/svg" xmlns:xlink="http://www.w3.org/1999/xlink" xml:space="preserve" xmlns:serif="http://www.serif.com/" style="fill-rule:evenodd;clip-rule:evenodd;stroke-linejoin:round;stroke-miterlimit:2;">
    <g transform="matrix(1,0,0,1,-1042,3)">
        <g id="_2025" serif:id="2025" transform="matrix(1,0,0,1,229.464151,-824.14645)">
            <g transform="matrix(96,0,0,96,1533.48259,1159.352)">
            </g>
            <text x="1341.483px" y="1159.352px" style="font-family:'Cochin';font-weight:500;font-size:96px;fill:rgb(214,242,255);">2025</text>
        </g>
        <g transform="matrix(744.382397,0,0,-786.133873,1280.499208,182.007323)">
            <path d="M0.05,0.049L0,0.049L0,0.081L0.145,0.081L0.145,0.049L0.095,0.049L0.095,-0.082L0.05,-0.082L0.05,0.049Z" style="fill:rgb(217,217,217);fill-rule:nonzero;"/>
        </g>
        <g transform="matrix(744.382397,0,0,-786.133873,1280.499208,182.178067)">
            <path d="M0.164,0.035C0.164,0.012 0.182,-0.003 0.201,-0.009L0.225,-0.018C0.241,-0.024 0.251,-0.027 0.251,-0.036C0.251,-0.045 0.244,-0.051 0.227,-0.051C0.212,-0.051 0.195,-0.044 0.182,-0.034L0.157,-0.061C0.176,-0.076 0.202,-0.084 0.226,-0.084C0.271,-0.084 0.297,-0.061 0.297,-0.033C0.297,-0.01 0.283,0.003 0.26,0.011L0.237,0.019C0.221,0.025 0.209,0.028 0.209,0.038C0.209,0.046 0.217,0.051 0.231,0.051C0.245,0.051 0.257,0.047 0.269,0.038L0.291,0.063C0.275,0.077 0.252,0.084 0.231,0.084C0.192,0.084 0.164,0.062 0.164,0.035Z" style="fill:rgb(217,217,217);fill-rule:nonzero;"/>
        </g>
        <g transform="matrix(744.382397,0,0,-786.133873,1280.499208,182.178067)">
            <path d="M0.314,-0.001C0.314,-0.056 0.355,-0.084 0.406,-0.084C0.432,-0.084 0.455,-0.075 0.468,-0.064L0.468,0.012L0.399,0.012L0.399,-0.02L0.429,-0.02L0.429,-0.047C0.425,-0.049 0.418,-0.051 0.411,-0.051C0.376,-0.051 0.36,-0.032 0.36,0C0.36,0.032 0.38,0.051 0.407,0.051C0.423,0.051 0.432,0.045 0.441,0.038L0.465,0.063C0.452,0.074 0.433,0.084 0.406,0.084C0.356,0.084 0.314,0.053 0.314,-0.001Z" style="fill:rgb(217,217,217);fill-rule:nonzero;"/>
        </g>
        <g transform="matrix(744.382397,0,0,-786.133873,1280.499208,182.178067)">
            <path d="M0.554,-0.001C0.554,-0.056 0.594,-0.084 0.641,-0.084C0.665,-0.084 0.686,-0.076 0.701,-0.06L0.678,-0.036C0.669,-0.044 0.658,-0.051 0.643,-0.051C0.616,-0.051 0.6,-0.032 0.6,0C0.6,0.032 0.619,0.051 0.643,0.051C0.656,0.051 0.666,0.046 0.675,0.038L0.699,0.063C0.686,0.075 0.667,0.084 0.642,0.084C0.595,0.084 0.554,0.053 0.554,-0.001Z" style="fill:rgb(217,217,217);fill-rule:nonzero;"/>
        </g>
        <g transform="matrix(744.382397,0,0,-786.133873,1280.499208,182.005404)">
            <path d="M0.715,0.081L0.715,0.049L0.765,0.049L0.765,-0.082L0.809,-0.082L0.809,0.049L0.86,0.049L0.86,0.081L0.715,0.081Z" style="fill:rgb(217,217,217);fill-rule:nonzero;"/>
        </g>
        <g transform="matrix(744.382397,0,0,-786.133873,1280.499208,182.005404)">
            <path d="M0.882,0.081L0.882,-0.082L0.926,-0.082L0.926,-0.019L0.99,-0.019L0.99,0.013L0.926,0.013L0.926,0.049L1,0.049L1,0.081L0.882,0.081Z" style="fill:rgb(217,217,217);fill-rule:nonzero;"/>
        </g>
    </g>
</svg>
