<?xml version="1.0" encoding="UTF-8"?>
<svg width="253px" height="45px" viewBox="0 0 253 45" version="1.1" xmlns="http://www.w3.org/2000/svg" xmlns:xlink="http://www.w3.org/1999/xlink">
    <!-- Generator: Sketch 53.2 (72643) - https://sketchapp.com -->
    <title>TSGCTF</title>
    <desc>Created with Sketch.</desc>
    <g id="Page-1" stroke="none" stroke-width="1" fill="none" fill-rule="evenodd">
        <g id="lp" transform="translate(-62.000000, -197.000000)" fill="#FAFAFA" fill-rule="nonzero">
            <path d="M74.86,206.08 L62.02,206.08 L62.02,198.16 L97.12,198.16 L97.12,206.08 L84.28,206.08 L84.28,241 L74.86,241 L74.86,206.08 Z M108.46,226.78 C108.46,228.220007 108.719997,229.439995 109.24,230.44 C109.760003,231.440005 110.449996,232.249997 111.31,232.87 C112.170004,233.490003 113.179994,233.949998 114.34,234.25 C115.500006,234.550002 116.699994,234.7 117.94,234.7 C118.780004,234.7 119.679995,234.630001 120.64,234.49 C121.600005,234.349999 122.499996,234.080002 123.34,233.68 C124.180004,233.279998 124.879997,232.730004 125.44,232.03 C126.000003,231.329996 126.28,230.440005 126.28,229.36 C126.28,228.199994 125.910004,227.260004 125.17,226.54 C124.429996,225.819996 123.460006,225.220002 122.26,224.74 C121.059994,224.259998 119.700008,223.840002 118.18,223.48 C116.659992,223.119998 115.120008,222.720002 113.56,222.28 C111.959992,221.879998 110.400008,221.390003 108.88,220.81 C107.359992,220.229997 106.000006,219.480005 104.8,218.56 C103.599994,217.639995 102.630004,216.490007 101.89,215.11 C101.149996,213.729993 100.78,212.06001 100.78,210.1 C100.78,207.899989 101.249995,205.990008 102.19,204.37 C103.130005,202.749992 104.359992,201.400005 105.88,200.32 C107.400008,199.239995 109.11999,198.440003 111.04,197.92 C112.96001,197.399997 114.87999,197.14 116.8,197.14 C119.040011,197.14 121.18999,197.389997 123.25,197.89 C125.31001,198.390003 127.139992,199.199994 128.74,200.32 C130.340008,201.440006 131.609995,202.869991 132.55,204.61 C133.490005,206.350009 133.96,208.459988 133.96,210.94 L124.84,210.94 C124.76,209.659994 124.490002,208.600004 124.03,207.76 C123.569998,206.919996 122.960004,206.260002 122.2,205.78 C121.439996,205.299998 120.570005,204.960001 119.59,204.76 C118.609995,204.559999 117.540006,204.46 116.38,204.46 C115.619996,204.46 114.860004,204.539999 114.1,204.7 C113.339996,204.860001 112.650003,205.139998 112.03,205.54 C111.409997,205.940002 110.900002,206.439997 110.5,207.04 C110.099998,207.640003 109.9,208.399995 109.9,209.32 C109.9,210.160004 110.059998,210.839997 110.38,211.36 C110.700002,211.880003 111.329995,212.359998 112.27,212.8 C113.210005,213.240002 114.509992,213.679998 116.17,214.12 C117.830008,214.560002 119.999987,215.119997 122.68,215.8 C123.480004,215.960001 124.589993,216.249998 126.01,216.67 C127.430007,217.090002 128.839993,217.759995 130.24,218.68 C131.640007,219.600005 132.849995,220.829992 133.87,222.37 C134.890005,223.910008 135.4,225.879988 135.4,228.28 C135.4,230.24001 135.020004,232.059992 134.26,233.74 C133.499996,235.420008 132.370007,236.869994 130.87,238.09 C129.369993,239.310006 127.510011,240.259997 125.29,240.94 C123.069989,241.620003 120.500015,241.96 117.58,241.96 C115.219988,241.96 112.930011,241.670003 110.71,241.09 C108.489989,240.509997 106.530009,239.600006 104.83,238.36 C103.129992,237.119994 101.780005,235.54001 100.78,233.62 C99.779995,231.69999 99.2999998,229.420013 99.34,226.78 L108.46,226.78 Z M171.94,236.14 C170.259992,238.300011 168.40001,239.809996 166.36,240.67 C164.31999,241.530004 162.26001,241.96 160.18,241.96 C156.899984,241.96 153.950013,241.390006 151.33,240.25 C148.709987,239.109994 146.500009,237.54001 144.7,235.54 C142.899991,233.53999 141.520005,231.190013 140.56,228.49 C139.599995,225.789986 139.12,222.880016 139.12,219.76 C139.12,216.559984 139.599995,213.590014 140.56,210.85 C141.520005,208.109986 142.899991,205.72001 144.7,203.68 C146.500009,201.63999 148.709987,200.040006 151.33,198.88 C153.950013,197.719994 156.899984,197.14 160.18,197.14 C162.380011,197.14 164.50999,197.469997 166.57,198.13 C168.63001,198.790003 170.489992,199.759994 172.15,201.04 C173.810008,202.320006 175.179995,203.899991 176.26,205.78 C177.340005,207.660009 177.999999,209.819988 178.24,212.26 L169.24,212.26 C168.679997,209.859988 167.600008,208.060006 166,206.86 C164.399992,205.659994 162.460011,205.06 160.18,205.06 C158.059989,205.06 156.260007,205.469996 154.78,206.29 C153.299993,207.110004 152.100005,208.209993 151.18,209.59 C150.259995,210.970007 149.590002,212.539991 149.17,214.3 C148.749998,216.060009 148.54,217.879991 148.54,219.76 C148.54,221.560009 148.749998,223.309991 149.17,225.01 C149.590002,226.710009 150.259995,228.239993 151.18,229.6 C152.100005,230.960007 153.299993,232.049996 154.78,232.87 C156.260007,233.690004 158.059989,234.1 160.18,234.1 C163.300016,234.1 165.709992,233.310008 167.41,231.73 C169.110009,230.149992 170.099999,227.860015 170.38,224.86 L160.9,224.86 L160.9,217.84 L178.9,217.84 L178.9,241 L172.9,241 L171.94,236.14 Z M231.76,212.56 C231.599999,211.479995 231.240003,210.490004 230.68,209.59 C230.119997,208.689996 229.420004,207.900003 228.58,207.22 C227.739996,206.539997 226.790005,206.010002 225.73,205.63 C224.669995,205.249998 223.560006,205.06 222.4,205.06 C220.279989,205.06 218.480007,205.469996 217,206.29 C215.519993,207.110004 214.320005,208.209993 213.4,209.59 C212.479995,210.970007 211.810002,212.539991 211.39,214.3 C210.969998,216.060009 210.76,217.879991 210.76,219.76 C210.76,221.560009 210.969998,223.309991 211.39,225.01 C211.810002,226.710009 212.479995,228.239993 213.4,229.6 C214.320005,230.960007 215.519993,232.049996 217,232.87 C218.480007,233.690004 220.279989,234.1 222.4,234.1 C225.280014,234.1 227.529992,233.220009 229.15,231.46 C230.770008,229.699991 231.759998,227.380014 232.12,224.5 L241.24,224.5 C240.999999,227.180013 240.380005,229.599989 239.38,231.76 C238.379995,233.920011 237.060008,235.759992 235.42,237.28 C233.779992,238.800008 231.860011,239.959996 229.66,240.76 C227.459989,241.560004 225.040013,241.96 222.4,241.96 C219.119984,241.96 216.170013,241.390006 213.55,240.25 C210.929987,239.109994 208.720009,237.54001 206.92,235.54 C205.119991,233.53999 203.740005,231.190013 202.78,228.49 C201.819995,225.789986 201.34,222.880016 201.34,219.76 C201.34,216.559984 201.819995,213.590014 202.78,210.85 C203.740005,208.109986 205.119991,205.72001 206.92,203.68 C208.720009,201.63999 210.929987,200.040006 213.55,198.88 C216.170013,197.719994 219.119984,197.14 222.4,197.14 C224.760012,197.14 226.98999,197.479997 229.09,198.16 C231.19001,198.840003 233.069992,199.829994 234.73,201.13 C236.390008,202.430006 237.759995,204.03999 238.84,205.96 C239.920005,207.88001 240.599999,210.079988 240.88,212.56 L231.76,212.56 Z M257.14,206.08 L244.3,206.08 L244.3,198.16 L279.4,198.16 L279.4,206.08 L266.56,206.08 L266.56,241 L257.14,241 L257.14,206.08 Z M284.32,198.16 L314.44,198.16 L314.44,206.08 L293.74,206.08 L293.74,215.98 L311.68,215.98 L311.68,223.3 L293.74,223.3 L293.74,241 L284.32,241 L284.32,198.16 Z" id="TSGCTF"></path>
        </g>
    </g>
</svg>