<svg xmlns="http://www.w3.org/2000/svg" viewBox="0 0 252.4 73.7">
  <path d="M104.4 73.3H89.9v-3.1c1.1-.8 2.2-1.7 3.3-2.6 1.1-.9 2-1.7 2.7-2.3 1-1 1.7-1.8 2.1-2.5s.6-1.4.6-2.1c0-.8-.3-1.5-.8-2s-1.3-.7-2.3-.7c-.8 0-1.6.2-2.4.5s-1.6.7-2.3 1.2h-.4v-4.1c.6-.3 1.5-.5 2.6-.8s2.3-.4 3.4-.4c2.3 0 4.1.5 5.3 1.5 1.2 1 1.8 2.3 1.8 4.1 0 1.2-.3 2.3-.9 3.3-.6 1.1-1.5 2.1-2.7 3.3-.8.7-1.5 1.3-2.3 1.9s-1.3 1-1.6 1.2h8.3l.1 3.6c-.1 0 0 0 0 0zm23-9.2c0 1.6-.1 3-.4 4.2s-.7 2.2-1.3 3c-.6.8-1.4 1.4-2.4 1.8s-2.1.6-3.6.6c-1.4 0-2.6-.2-3.5-.6-1-.4-1.8-1-2.4-1.8s-1.1-1.8-1.3-3c-.3-1.2-.4-2.6-.4-4.1 0-1.6.1-3 .4-4.2s.7-2.2 1.3-3c.6-.8 1.4-1.4 2.4-1.8 1-.4 2.1-.6 3.5-.6s2.6.2 3.6.6 1.7 1 2.4 1.9c.6.8 1 1.8 1.3 3s.4 2.4.4 4zm-4.8 0c0-2.2-.2-3.8-.7-4.8s-1.2-1.4-2.2-1.4-1.7.5-2.2 1.4c-.4.9-.7 2.5-.7 4.8 0 2.2.2 3.8.7 4.7s1.2 1.5 2.2 1.5 1.7-.5 2.2-1.5.7-2.5.7-4.7zm28.1 9.2h-14.5v-3.1c1.1-.8 2.2-1.7 3.3-2.6s2-1.7 2.7-2.3c1-1 1.7-1.8 2.1-2.5s.6-1.4.6-2.1c0-.8-.3-1.5-.8-2s-1.3-.7-2.3-.7c-.8 0-1.6.2-2.4.5-.8.3-1.6.7-2.3 1.2h-.4v-4.1c.6-.3 1.5-.5 2.6-.8s2.3-.4 3.4-.4c2.3 0 4.1.5 5.3 1.5s1.8 2.3 1.8 4.1c0 1.2-.3 2.3-.9 3.3-.6 1.1-1.5 2.1-2.7 3.3-.8.7-1.5 1.3-2.3 1.9s-1.3 1-1.6 1.2h8.3l.1 3.6zm23-9.2c0 1.6-.1 3-.4 4.2s-.7 2.2-1.3 3-1.4 1.4-2.4 1.8-2.1.6-3.6.6c-1.4 0-2.6-.2-3.5-.6s-1.8-1-2.4-1.8c-.6-.8-1.1-1.8-1.3-3-.3-1.2-.4-2.6-.4-4.1 0-1.6.1-3 .4-4.2.3-1.2.7-2.2 1.3-3s1.4-1.4 2.4-1.8c1-.4 2.1-.6 3.5-.6s2.6.2 3.6.6 1.7 1 2.4 1.9c.6.8 1 1.8 1.3 3s.4 2.4.4 4zm-4.8 0c0-2.2-.2-3.8-.7-4.8-.4-.9-1.2-1.4-2.2-1.4s-1.7.5-2.2 1.4-.7 2.5-.7 4.8c0 2.2.2 3.8.7 4.7s1.2 1.5 2.2 1.5 1.7-.5 2.2-1.5c.5-.9.7-2.5.7-4.7z" fill="#ebff30"/>
  <path d="M12.9 9.1H0V1.2h35.1v7.9H22.3V44h-9.4V9.1zm33.6 20.7c0 1.4.3 2.7.8 3.7s1.2 1.8 2.1 2.4c.9.6 1.9 1.1 3 1.4 1.2.3 2.4.4 3.6.4.8 0 1.7-.1 2.7-.2s1.9-.4 2.7-.8c.8-.4 1.5-.9 2.1-1.6.6-.7.8-1.6.8-2.7 0-1.2-.4-2.1-1.1-2.8-.7-.7-1.7-1.3-2.9-1.8s-2.6-.9-4.1-1.3c-1.5-.4-3.1-.8-4.6-1.2-1.6-.4-3.2-.9-4.7-1.5s-2.9-1.3-4.1-2.3c-1.2-.9-2.2-2.1-2.9-3.4s-1.1-3-1.1-5c0-2.2.5-4.1 1.4-5.7.9-1.6 2.2-3 3.7-4 1.5-1.1 3.2-1.9 5.2-2.4C51 .5 52.9.2 54.9.2c2.2 0 4.4.3 6.4.8s3.9 1.3 5.5 2.4c1.6 1.1 2.9 2.5 3.8 4.3S72 11.5 72 14h-9.1c-.1-1.3-.3-2.3-.8-3.2-.5-.8-1.1-1.5-1.8-2-.8-.5-1.6-.8-2.6-1-1-.2-2-.3-3.2-.3-.8 0-1.5.1-2.3.2s-1.4.4-2.1.8c-.6.4-1.1.9-1.5 1.5-.4.6-.6 1.4-.6 2.3 0 .8.2 1.5.5 2s.9 1 1.9 1.4c.9.4 2.2.9 3.9 1.3 1.7.4 3.8 1 6.5 1.7.8.2 1.9.4 3.3.9s2.8 1.1 4.2 2c1.4.9 2.6 2.1 3.6 3.7s1.5 3.5 1.5 5.9c0 2-.4 3.8-1.1 5.5-.8 1.7-1.9 3.1-3.4 4.3-1.5 1.2-3.4 2.2-5.6 2.9s-4.8 1-7.7 1c-2.4 0-4.6-.3-6.9-.9s-4.2-1.5-5.9-2.7c-1.7-1.2-3-2.8-4.1-4.7-1-1.9-1.5-4.2-1.4-6.8h9.2zm63.4 9.3c-1.7 2.2-3.5 3.7-5.6 4.5s-4.1 1.3-6.2 1.3c-3.3 0-6.2-.6-8.8-1.7s-4.8-2.7-6.6-4.7c-1.8-2-3.2-4.3-4.1-7s-1.4-5.6-1.4-8.7c0-3.2.5-6.2 1.4-8.9 1-2.7 2.3-5.1 4.1-7.2 1.8-2 4-3.6 6.6-4.8S94.9.2 98.1.2c2.2 0 4.3.3 6.4 1 2.1.7 3.9 1.6 5.6 2.9 1.7 1.3 3 2.9 4.1 4.7 1.1 1.9 1.7 4 2 6.5h-9c-.6-2.4-1.6-4.2-3.2-5.4s-3.5-1.8-5.8-1.8c-2.1 0-3.9.4-5.4 1.2-1.5.8-2.7 1.9-3.6 3.3-.9 1.4-1.6 2.9-2 4.7s-.6 3.6-.6 5.5c0 1.8.2 3.6.6 5.3.4 1.7 1.1 3.2 2 4.6.9 1.4 2.1 2.4 3.6 3.3 1.5.8 3.3 1.2 5.4 1.2 3.1 0 5.5-.8 7.2-2.4 1.7-1.6 2.7-3.9 3-6.9h-9.5v-7h18V44h-6l-1-4.9zm59.9-23.5c-.2-1.1-.5-2.1-1.1-3-.6-.9-1.3-1.7-2.1-2.4s-1.8-1.2-2.9-1.6a9.6 9.6 0 00-3.3-.6c-2.1 0-3.9.4-5.4 1.2-1.5.8-2.7 1.9-3.6 3.3-.9 1.4-1.6 2.9-2 4.7s-.6 3.6-.6 5.5c0 1.8.2 3.6.6 5.3.4 1.7 1.1 3.2 2 4.6.9 1.4 2.1 2.4 3.6 3.3 1.5.8 3.3 1.2 5.4 1.2 2.9 0 5.1-.9 6.8-2.6 1.6-1.8 2.6-4.1 3-7h9.1c-.2 2.7-.9 5.1-1.9 7.3-1 2.2-2.3 4-4 5.5-1.6 1.5-3.6 2.7-5.8 3.5S163 45 160.3 45c-3.3 0-6.2-.6-8.8-1.7s-4.8-2.7-6.6-4.7c-1.8-2-3.2-4.3-4.1-7s-1.4-5.6-1.4-8.7c0-3.2.5-6.2 1.4-8.9 1-2.7 2.3-5.1 4.1-7.2 1.8-2 4-3.6 6.6-4.8s5.6-1.7 8.8-1.7c2.4 0 4.6.3 6.7 1 2.1.7 4 1.7 5.6 3 1.7 1.3 3 2.9 4.1 4.8 1.1 1.9 1.8 4.1 2 6.6h-8.9zm25.3-6.5h-12.8V1.2h35.1v7.9h-12.8V44h-9.4V9.1zm27.2-7.9h30.1v7.9h-20.7V19h17.9v7.3h-17.9V44h-9.4V1.2z" fill="#fafafa"/>
</svg>
