<svg xmlns="http://www.w3.org/2000/svg" width="1012" height="320" viewBox="0 0 759 239.999995" preserveAspectRatio="xMidYMid meet" version="1.0">
  <defs><g/></defs>
  <g fill="#d9d9d9" fill-opacity="1">
    <g transform="translate(124.126351, 134.759011)">
      <g>
        <path d="M 54.640625 0 L 29.796875 0 L 29.796875 -81.671875 L 0.734375 -81.671875 L 0.734375 -102.875 L 83.703125 -102.875 L 83.703125 -81.671875 L 54.640625 -81.671875 Z M 54.640625 0 "/>
      </g>
    </g>
  </g>
  <g fill="#d9d9d9" fill-opacity="1">
    <g transform="translate(208.546489, 134.759011)">
      <g>
        <path d="M 40.6875 2.609375 C 33.226562 2.609375 26.054688 1.300781 19.171875 -1.3125 C 12.296875 -3.925781 6.632812 -7.554688 2.1875 -12.203125 L 18.453125 -28.765625 C 20.972656 -25.578125 24.289062 -22.960938 28.40625 -20.921875 C 32.519531 -18.890625 36.613281 -17.875 40.6875 -17.875 C 44.851562 -17.875 48.265625 -18.769531 50.921875 -20.5625 C 53.585938 -22.351562 54.921875 -25.1875 54.921875 -29.0625 C 54.921875 -31.582031 54.125 -33.640625 52.53125 -35.234375 C 50.9375 -36.835938 48.78125 -38.195312 46.0625 -39.3125 C 43.351562 -40.425781 39.1875 -41.898438 33.5625 -43.734375 C 28.425781 -45.378906 23.96875 -47.316406 20.1875 -49.546875 C 16.414062 -51.773438 13.316406 -54.828125 10.890625 -58.703125 C 8.472656 -62.578125 7.265625 -67.421875 7.265625 -73.234375 C 7.265625 -80.398438 9.175781 -86.40625 13 -91.25 C 16.832031 -96.09375 21.773438 -99.675781 27.828125 -102 C 33.878906 -104.332031 40.296875 -105.5 47.078125 -105.5 C 53.085938 -105.5 59.117188 -104.40625 65.171875 -102.21875 C 71.222656 -100.039062 76.429688 -96.921875 80.796875 -92.859375 L 64.953125 -76.140625 C 62.921875 -78.753906 60.1875 -80.882812 56.75 -82.53125 C 53.3125 -84.1875 49.941406 -85.015625 46.640625 -85.015625 C 42.765625 -85.015625 39.398438 -84.210938 36.546875 -82.609375 C 33.691406 -81.015625 32.265625 -78.375 32.265625 -74.6875 C 32.265625 -72.5625 32.867188 -70.769531 34.078125 -69.3125 C 35.285156 -67.863281 36.976562 -66.675781 39.15625 -65.75 C 41.34375 -64.832031 44.320312 -63.789062 48.09375 -62.625 C 54.300781 -60.789062 59.609375 -58.78125 64.015625 -56.59375 C 68.421875 -54.414062 72.195312 -51.289062 75.34375 -47.21875 C 78.488281 -43.15625 80.0625 -37.972656 80.0625 -31.671875 C 80.0625 -24.117188 78.242188 -17.773438 74.609375 -12.640625 C 70.984375 -7.503906 66.191406 -3.675781 60.234375 -1.15625 C 54.273438 1.351562 47.757812 2.609375 40.6875 2.609375 Z M 40.6875 2.609375 "/>
      </g>
    </g>
  </g>
  <g fill="#d9d9d9" fill-opacity="1">
    <g transform="translate(294.419642, 134.759011)">
      <g>
        <path d="M 62.34375 2.609375 C 51.488281 2.609375 41.773438 0.332031 33.203125 -4.21875 C 24.628906 -8.769531 17.921875 -15.140625 13.078125 -23.328125 C 8.234375 -31.515625 5.8125 -40.9375 5.8125 -51.59375 C 5.8125 -62.34375 8.253906 -71.8125 13.140625 -80 C 18.035156 -88.1875 24.722656 -94.503906 33.203125 -98.953125 C 41.679688 -103.410156 51.148438 -105.640625 61.609375 -105.640625 C 69.554688 -105.640625 77.066406 -104.40625 84.140625 -101.9375 C 91.210938 -99.46875 96.925781 -96.148438 101.28125 -91.984375 L 85.59375 -74.109375 C 83.070312 -77.015625 79.800781 -79.335938 75.78125 -81.078125 C 71.757812 -82.828125 67.328125 -83.703125 62.484375 -83.703125 C 56.765625 -83.703125 51.601562 -82.320312 47 -79.5625 C 42.40625 -76.800781 38.800781 -72.972656 36.1875 -68.078125 C 33.570312 -63.179688 32.265625 -57.6875 32.265625 -51.59375 C 32.265625 -45.289062 33.5 -39.691406 35.96875 -34.796875 C 38.4375 -29.910156 42.019531 -26.085938 46.71875 -23.328125 C 51.414062 -20.566406 57.054688 -19.1875 63.640625 -19.1875 C 69.742188 -19.1875 74.929688 -20.101562 79.203125 -21.9375 L 79.203125 -40.6875 L 59.578125 -40.6875 L 59.578125 -60.734375 L 102.015625 -60.734375 L 102.015625 -6.25 C 96.773438 -3.539062 90.765625 -1.390625 83.984375 0.203125 C 77.203125 1.804688 69.988281 2.609375 62.34375 2.609375 Z M 62.34375 2.609375 "/>
      </g>
    </g>
  </g>
  <g fill="#d9d9d9" fill-opacity="1">
    <g transform="translate(406.156463, 134.759011)">
      <g>
      </g>
    </g>
  </g>
  <g fill="#d9d9d9" fill-opacity="1">
    <g transform="translate(442.481827, 134.759011)">
      <g>
        <path d="M 61.171875 2.765625 C 50.710938 2.765625 41.269531 0.460938 32.84375 -4.140625 C 24.414062 -8.742188 17.800781 -15.160156 13 -23.390625 C 8.207031 -31.628906 5.8125 -41.03125 5.8125 -51.59375 C 5.8125 -62.34375 8.253906 -71.8125 13.140625 -80 C 18.035156 -88.1875 24.722656 -94.503906 33.203125 -98.953125 C 41.679688 -103.410156 51.148438 -105.640625 61.609375 -105.640625 C 69.066406 -105.640625 76.304688 -104.304688 83.328125 -101.640625 C 90.359375 -98.984375 95.957031 -95.28125 100.125 -90.53125 L 83.265625 -73.671875 C 81.035156 -76.773438 78.054688 -79.125 74.328125 -80.71875 C 70.597656 -82.320312 66.648438 -83.125 62.484375 -83.125 C 56.765625 -83.125 51.648438 -81.765625 47.140625 -79.046875 C 42.640625 -76.335938 39.128906 -72.582031 36.609375 -67.78125 C 34.097656 -62.988281 32.84375 -57.59375 32.84375 -51.59375 C 32.84375 -45.382812 34.078125 -39.90625 36.546875 -35.15625 C 39.015625 -30.414062 42.476562 -26.710938 46.9375 -24.046875 C 51.394531 -21.378906 56.429688 -20.046875 62.046875 -20.046875 C 66.796875 -20.046875 71.054688 -20.988281 74.828125 -22.875 C 78.609375 -24.769531 81.613281 -27.316406 83.84375 -30.515625 L 101.140625 -14.234375 C 96.484375 -8.816406 90.765625 -4.628906 83.984375 -1.671875 C 77.203125 1.285156 69.597656 2.765625 61.171875 2.765625 Z M 61.171875 2.765625 "/>
      </g>
    </g>
  </g>
  <g fill="#d9d9d9" fill-opacity="1">
    <g transform="translate(543.611657, 134.759011)">
      <g>
        <path d="M 54.640625 0 L 29.796875 0 L 29.796875 -81.671875 L 0.734375 -81.671875 L 0.734375 -102.875 L 83.703125 -102.875 L 83.703125 -81.671875 L 54.640625 -81.671875 Z M 54.640625 0 "/>
      </g>
    </g>
  </g>
  <g fill="#d9d9d9" fill-opacity="1">
    <g transform="translate(628.031781, 134.759011)">
      <g>
        <path d="M 35.171875 0 L 10.609375 0 L 10.609375 -102.875 L 78.328125 -102.875 L 78.328125 -81.671875 L 35.171875 -81.671875 L 35.171875 -60.453125 L 74.984375 -60.453125 L 74.984375 -39.96875 L 35.171875 -39.96875 Z M 35.171875 0 "/>
      </g>
    </g>
  </g>
  <g fill="#2bf0fe" fill-opacity="1">
    <g transform="translate(289.960637, 234.931461)">
      <g>
        <path d="M 34.328125 -56.3125 C 34.328125 -57.90625 34.019531 -59.222656 33.40625 -60.265625 C 32.789062 -61.316406 31.976562 -62.164062 30.96875 -62.8125 C 29.957031 -63.457031 28.820312 -63.90625 27.5625 -64.15625 C 26.300781 -64.414062 24.984375 -64.546875 23.609375 -64.546875 C 24.179688 -65.265625 24.957031 -66.019531 25.9375 -66.8125 C 26.914062 -67.613281 28.050781 -68.335938 29.34375 -68.984375 C 30.644531 -69.628906 32.085938 -70.171875 33.671875 -70.609375 C 35.265625 -71.046875 36.925781 -71.265625 38.65625 -71.265625 C 41.113281 -71.265625 43.117188 -70.320312 44.671875 -68.4375 C 46.222656 -66.5625 47 -63.242188 47 -58.484375 C 47 -54.648438 46.601562 -51.289062 45.8125 -48.40625 C 45.019531 -45.519531 43.9375 -42.921875 42.5625 -40.609375 C 41.1875 -38.296875 39.632812 -36.253906 37.90625 -34.484375 C 36.175781 -32.722656 34.40625 -31.082031 32.59375 -29.5625 C 30.71875 -27.976562 28.316406 -26.15625 25.390625 -24.09375 C 22.472656 -22.039062 19.550781 -19.859375 16.625 -17.546875 C 13.695312 -15.234375 11.0625 -12.832031 8.71875 -10.34375 C 6.375 -7.851562 4.835938 -5.378906 4.109375 -2.921875 L 3.25 0 L 44.734375 0 L 54.90625 -19.8125 C 55.125 -20.320312 55.320312 -20.8125 55.5 -21.28125 C 55.675781 -21.75 55.765625 -22.164062 55.765625 -22.53125 C 55.765625 -22.882812 55.625 -23.0625 55.34375 -23.0625 C 54.90625 -23.0625 54.363281 -22.445312 53.71875 -21.21875 C 53.28125 -20.425781 52.734375 -19.539062 52.078125 -18.5625 C 51.429688 -17.59375 50.640625 -16.675781 49.703125 -15.8125 C 48.765625 -14.945312 47.609375 -14.207031 46.234375 -13.59375 C 44.867188 -12.976562 43.285156 -12.671875 41.484375 -12.671875 L 16.03125 -12.671875 C 17.332031 -13.753906 18.773438 -14.726562 20.359375 -15.59375 C 21.953125 -16.457031 23.59375 -17.269531 25.28125 -18.03125 C 26.976562 -18.789062 28.65625 -19.492188 30.3125 -20.140625 C 31.976562 -20.796875 33.535156 -21.519531 34.984375 -22.3125 C 38.585938 -23.75 42.03125 -25.515625 45.3125 -27.609375 C 48.601562 -29.703125 51.507812 -32.140625 54.03125 -34.921875 C 56.5625 -37.703125 58.582031 -40.820312 60.09375 -44.28125 C 61.613281 -47.75 62.375 -51.546875 62.375 -55.671875 C 62.375 -58.554688 61.847656 -61.132812 60.796875 -63.40625 C 59.753906 -65.675781 58.3125 -67.585938 56.46875 -69.140625 C 54.632812 -70.691406 52.453125 -71.863281 49.921875 -72.65625 C 47.398438 -73.457031 44.691406 -73.859375 41.796875 -73.859375 C 38.117188 -73.859375 34.671875 -73.332031 31.453125 -72.28125 C 28.242188 -71.238281 25.445312 -69.847656 23.0625 -68.109375 C 20.6875 -66.378906 18.8125 -64.410156 17.4375 -62.203125 C 16.0625 -60.003906 15.375 -57.789062 15.375 -55.5625 C 15.375 -54.039062 15.660156 -52.703125 16.234375 -51.546875 C 16.816406 -50.390625 17.539062 -49.453125 18.40625 -48.734375 C 19.269531 -48.015625 20.257812 -47.472656 21.375 -47.109375 C 22.5 -46.742188 23.601562 -46.5625 24.6875 -46.5625 C 27.21875 -46.5625 29.457031 -47.375 31.40625 -49 C 33.351562 -50.625 34.328125 -53.0625 34.328125 -56.3125 Z M 34.328125 -56.3125 "/>
      </g>
    </g>
  </g>
  <g fill="#2bf0fe" fill-opacity="1">
    <g transform="translate(353.943253, 234.931461)">
      <g>
        <path d="M -0.109375 -23.390625 C -0.109375 -19.992188 0.300781 -16.832031 1.125 -13.90625 C 1.957031 -10.988281 3.257812 -8.410156 5.03125 -6.171875 C 6.800781 -3.929688 9.054688 -2.179688 11.796875 -0.921875 C 14.546875 0.335938 17.867188 0.96875 21.765625 0.96875 C 25.660156 0.96875 29.378906 0.226562 32.921875 -1.25 C 36.460938 -2.726562 39.710938 -4.75 42.671875 -7.3125 C 45.628906 -9.875 48.316406 -12.832031 50.734375 -16.1875 C 53.148438 -19.539062 55.1875 -23.09375 56.84375 -26.84375 C 58.507812 -30.601562 59.789062 -34.453125 60.6875 -38.390625 C 61.59375 -42.328125 62.046875 -46.097656 62.046875 -49.703125 C 62.046875 -53.023438 61.628906 -56.164062 60.796875 -59.125 C 59.972656 -62.082031 58.691406 -64.660156 56.953125 -66.859375 C 55.222656 -69.066406 52.988281 -70.800781 50.25 -72.0625 C 47.507812 -73.332031 44.222656 -73.96875 40.390625 -73.96875 C 36.421875 -73.96875 32.664062 -73.226562 29.125 -71.75 C 25.59375 -70.269531 22.328125 -68.265625 19.328125 -65.734375 C 16.335938 -63.210938 13.648438 -60.269531 11.265625 -56.90625 C 8.878906 -53.550781 6.835938 -49.992188 5.140625 -46.234375 C 3.441406 -42.484375 2.140625 -38.660156 1.234375 -34.765625 C 0.335938 -30.867188 -0.109375 -27.078125 -0.109375 -23.390625 Z M 43.53125 -51.109375 C 42.238281 -46.128906 40.921875 -41.148438 39.578125 -36.171875 C 38.242188 -31.191406 36.820312 -25.921875 35.3125 -20.359375 C 34.65625 -17.898438 34 -15.5 33.34375 -13.15625 C 32.695312 -10.8125 31.921875 -8.734375 31.015625 -6.921875 C 30.117188 -5.117188 28.96875 -3.675781 27.5625 -2.59375 C 26.15625 -1.507812 24.332031 -0.96875 22.09375 -0.96875 C 19.488281 -0.96875 17.71875 -1.582031 16.78125 -2.8125 C 15.84375 -4.039062 15.375 -5.628906 15.375 -7.578125 C 15.375 -9.378906 15.644531 -11.378906 16.1875 -13.578125 C 16.726562 -15.785156 17.289062 -18.007812 17.875 -20.25 C 19.164062 -25.226562 20.5 -30.351562 21.875 -35.625 C 23.25 -40.894531 24.65625 -46.128906 26.09375 -51.328125 C 26.75 -53.492188 27.398438 -55.785156 28.046875 -58.203125 C 28.703125 -60.628906 29.535156 -62.867188 30.546875 -64.921875 C 31.554688 -66.984375 32.800781 -68.679688 34.28125 -70.015625 C 35.757812 -71.347656 37.65625 -72.015625 39.96875 -72.015625 C 42.34375 -72.015625 43.945312 -71.347656 44.78125 -70.015625 C 45.613281 -68.679688 46.03125 -66.96875 46.03125 -64.875 C 46.03125 -62.78125 45.757812 -60.503906 45.21875 -58.046875 C 44.675781 -55.585938 44.113281 -53.273438 43.53125 -51.109375 Z M 43.53125 -51.109375 "/>
      </g>
    </g>
  </g>
  <g fill="#2bf0fe" fill-opacity="1">
    <g transform="translate(417.925868, 234.931461)">
      <g>
        <path d="M 34.328125 -56.3125 C 34.328125 -57.90625 34.019531 -59.222656 33.40625 -60.265625 C 32.789062 -61.316406 31.976562 -62.164062 30.96875 -62.8125 C 29.957031 -63.457031 28.820312 -63.90625 27.5625 -64.15625 C 26.300781 -64.414062 24.984375 -64.546875 23.609375 -64.546875 C 24.179688 -65.265625 24.957031 -66.019531 25.9375 -66.8125 C 26.914062 -67.613281 28.050781 -68.335938 29.34375 -68.984375 C 30.644531 -69.628906 32.085938 -70.171875 33.671875 -70.609375 C 35.265625 -71.046875 36.925781 -71.265625 38.65625 -71.265625 C 41.113281 -71.265625 43.117188 -70.320312 44.671875 -68.4375 C 46.222656 -66.5625 47 -63.242188 47 -58.484375 C 47 -54.648438 46.601562 -51.289062 45.8125 -48.40625 C 45.019531 -45.519531 43.9375 -42.921875 42.5625 -40.609375 C 41.1875 -38.296875 39.632812 -36.253906 37.90625 -34.484375 C 36.175781 -32.722656 34.40625 -31.082031 32.59375 -29.5625 C 30.71875 -27.976562 28.316406 -26.15625 25.390625 -24.09375 C 22.472656 -22.039062 19.550781 -19.859375 16.625 -17.546875 C 13.695312 -15.234375 11.0625 -12.832031 8.71875 -10.34375 C 6.375 -7.851562 4.835938 -5.378906 4.109375 -2.921875 L 3.25 0 L 44.734375 0 L 54.90625 -19.8125 C 55.125 -20.320312 55.320312 -20.8125 55.5 -21.28125 C 55.675781 -21.75 55.765625 -22.164062 55.765625 -22.53125 C 55.765625 -22.882812 55.625 -23.0625 55.34375 -23.0625 C 54.90625 -23.0625 54.363281 -22.445312 53.71875 -21.21875 C 53.28125 -20.425781 52.734375 -19.539062 52.078125 -18.5625 C 51.429688 -17.59375 50.640625 -16.675781 49.703125 -15.8125 C 48.765625 -14.945312 47.609375 -14.207031 46.234375 -13.59375 C 44.867188 -12.976562 43.285156 -12.671875 41.484375 -12.671875 L 16.03125 -12.671875 C 17.332031 -13.753906 18.773438 -14.726562 20.359375 -15.59375 C 21.953125 -16.457031 23.59375 -17.269531 25.28125 -18.03125 C 26.976562 -18.789062 28.65625 -19.492188 30.3125 -20.140625 C 31.976562 -20.796875 33.535156 -21.519531 34.984375 -22.3125 C 38.585938 -23.75 42.03125 -25.515625 45.3125 -27.609375 C 48.601562 -29.703125 51.507812 -32.140625 54.03125 -34.921875 C 56.5625 -37.703125 58.582031 -40.820312 60.09375 -44.28125 C 61.613281 -47.75 62.375 -51.546875 62.375 -55.671875 C 62.375 -58.554688 61.847656 -61.132812 60.796875 -63.40625 C 59.753906 -65.675781 58.3125 -67.585938 56.46875 -69.140625 C 54.632812 -70.691406 52.453125 -71.863281 49.921875 -72.65625 C 47.398438 -73.457031 44.691406 -73.859375 41.796875 -73.859375 C 38.117188 -73.859375 34.671875 -73.332031 31.453125 -72.28125 C 28.242188 -71.238281 25.445312 -69.847656 23.0625 -68.109375 C 20.6875 -66.378906 18.8125 -64.410156 17.4375 -62.203125 C 16.0625 -60.003906 15.375 -57.789062 15.375 -55.5625 C 15.375 -54.039062 15.660156 -52.703125 16.234375 -51.546875 C 16.816406 -50.390625 17.539062 -49.453125 18.40625 -48.734375 C 19.269531 -48.015625 20.257812 -47.472656 21.375 -47.109375 C 22.5 -46.742188 23.601562 -46.5625 24.6875 -46.5625 C 27.21875 -46.5625 29.457031 -47.375 31.40625 -49 C 33.351562 -50.625 34.328125 -53.0625 34.328125 -56.3125 Z M 34.328125 -56.3125 "/>
      </g>
    </g>
  </g>
  <g fill="#2bf0fe" fill-opacity="1">
    <g transform="translate(481.908484, 234.931461)">
      <g>
        <path d="M 60.75 -72.78125 L 50.140625 -72.78125 C 47.328125 -69.8125 44.003906 -66.234375 40.171875 -62.046875 C 36.347656 -57.859375 32.414062 -53.453125 28.375 -48.828125 C 24.332031 -44.210938 20.394531 -39.613281 16.5625 -35.03125 C 12.738281 -30.445312 9.457031 -26.28125 6.71875 -22.53125 L 6.0625 -20.140625 L 30.4375 -20.140625 L 25.453125 -1.84375 L 19.703125 -1.84375 L 19.171875 0.109375 L 47.109375 0.109375 L 47.65625 -1.84375 L 41.796875 -1.84375 L 46.671875 -20.140625 L 56.75 -20.140625 L 58.484375 -26.640625 L 48.40625 -26.640625 Z M 32.171875 -26.640625 L 12.671875 -26.640625 C 14.691406 -29.242188 16.945312 -32.039062 19.4375 -35.03125 C 21.925781 -38.03125 24.453125 -40.988281 27.015625 -43.90625 C 29.578125 -46.832031 32.050781 -49.59375 34.4375 -52.1875 C 36.820312 -54.789062 38.953125 -57.03125 40.828125 -58.90625 Z M 32.171875 -26.640625 "/>
      </g>
    </g>
  </g>
</svg>
