<svg version="1.1" xmlns="http://www.w3.org/2000/svg" x="0" y="0" viewBox="0 0 252.4 73.7" style="enable-background:new 0 0 252.4 73.7" xml:space="preserve">
    <style>
        .st2{fill:#ebff30}
    </style>
    <g id="lp_1_" transform="translate(-62 -197)">
        <path id="TSGCTF_1_" d="M74.9 206.1H62v-7.9h35.1v7.9H84.3V241h-9.4v-34.9zm33.6 20.7c0 1.4.3 2.7.8 3.7s1.2 1.8 2.1 2.4c.9.6 1.9 1.1 3 1.4 1.2.3 2.4.4 3.6.4.8 0 1.7-.1 2.7-.2s1.9-.4 2.7-.8c.8-.4 1.5-.9 2.1-1.6.6-.7.8-1.6.8-2.7 0-1.2-.4-2.1-1.1-2.8s-1.7-1.3-2.9-1.8-2.6-.9-4.1-1.3c-1.5-.4-3.1-.8-4.6-1.2-1.6-.4-3.2-.9-4.7-1.5s-2.9-1.3-4.1-2.3c-1.2-.9-2.2-2.1-2.9-3.4s-1.1-3-1.1-5c0-2.2.5-4.1 1.4-5.7.9-1.6 2.2-3 3.7-4 1.5-1.1 3.2-1.9 5.2-2.4 1.9-.5 3.8-.8 5.8-.8 2.2 0 4.4.3 6.4.8s3.9 1.3 5.5 2.4c1.6 1.1 2.9 2.5 3.8 4.3s1.4 3.8 1.4 6.3h-9.1c-.1-1.3-.3-2.3-.8-3.2-.5-.8-1.1-1.5-1.8-2-.8-.5-1.6-.8-2.6-1s-2-.3-3.2-.3c-.8 0-1.5.1-2.3.2s-1.4.4-2.1.8c-.6.4-1.1.9-1.5 1.5s-.6 1.4-.6 2.3c0 .8.2 1.5.5 2s.9 1 1.9 1.4c.9.4 2.2.9 3.9 1.3 1.7.4 3.8 1 6.5 1.7.8.2 1.9.4 3.3.9s2.8 1.1 4.2 2 2.6 2.1 3.6 3.7 1.5 3.5 1.5 5.9c0 2-.4 3.8-1.1 5.5-.8 1.7-1.9 3.1-3.4 4.3s-3.4 2.2-5.6 2.9-4.8 1-7.7 1c-2.4 0-4.6-.3-6.9-.9s-4.2-1.5-5.9-2.7c-1.7-1.2-3-2.8-4.1-4.7-1-1.9-1.5-4.2-1.4-6.8h9.2zm63.4 9.3c-1.7 2.2-3.5 3.7-5.6 4.5s-4.1 1.3-6.2 1.3c-3.3 0-6.2-.6-8.8-1.7s-4.8-2.7-6.6-4.7-3.2-4.3-4.1-7-1.4-5.6-1.4-8.7c0-3.2.5-6.2 1.4-8.9 1-2.7 2.3-5.1 4.1-7.2 1.8-2 4-3.6 6.6-4.8s5.6-1.7 8.8-1.7c2.2 0 4.3.3 6.4 1 2.1.7 3.9 1.6 5.6 2.9 1.7 1.3 3 2.9 4.1 4.7 1.1 1.9 1.7 4 2 6.5h-9c-.6-2.4-1.6-4.2-3.2-5.4s-3.5-1.8-5.8-1.8c-2.1 0-3.9.4-5.4 1.2s-2.7 1.9-3.6 3.3c-.9 1.4-1.6 2.9-2 4.7s-.6 3.6-.6 5.5c0 1.8.2 3.6.6 5.3.4 1.7 1.1 3.2 2 4.6.9 1.4 2.1 2.4 3.6 3.3 1.5.8 3.3 1.2 5.4 1.2 3.1 0 5.5-.8 7.2-2.4 1.7-1.6 2.7-3.9 3-6.9h-9.5v-7h18V241h-6l-1-4.9zm59.9-23.5c-.2-1.1-.5-2.1-1.1-3s-1.3-1.7-2.1-2.4-1.8-1.2-2.9-1.6a9.6 9.6 0 0 0-3.3-.6c-2.1 0-3.9.4-5.4 1.2s-2.7 1.9-3.6 3.3c-.9 1.4-1.6 2.9-2 4.7s-.6 3.6-.6 5.5c0 1.8.2 3.6.6 5.3.4 1.7 1.1 3.2 2 4.6.9 1.4 2.1 2.4 3.6 3.3 1.5.8 3.3 1.2 5.4 1.2 2.9 0 5.1-.9 6.8-2.6 1.6-1.8 2.6-4.1 3-7h9.1c-.2 2.7-.9 5.1-1.9 7.3s-2.3 4-4 5.5c-1.6 1.5-3.6 2.7-5.8 3.5s-4.6 1.2-7.3 1.2c-3.3 0-6.2-.6-8.8-1.7s-4.8-2.7-6.6-4.7-3.2-4.3-4.1-7-1.4-5.6-1.4-8.7c0-3.2.5-6.2 1.4-8.9 1-2.7 2.3-5.1 4.1-7.2 1.8-2 4-3.6 6.6-4.8s5.6-1.7 8.8-1.7c2.4 0 4.6.3 6.7 1 2.1.7 4 1.7 5.6 3 1.7 1.3 3 2.9 4.1 4.8 1.1 1.9 1.8 4.1 2 6.6h-8.9v-.1zm25.3-6.5h-12.8v-7.9h35.1v7.9h-12.8V241h-9.4v-34.9h-.1zm27.2-7.9h30.1v7.9h-20.7v9.9h17.9v7.3h-17.9V241h-9.4v-42.8z" style="fill:#fafafa"/>
    </g>
    <path class="st2" d="M96.3 68.8h6.8c.2 0 .4.1.5.2.1.1.2.3.2.5v2.9c0 .2-.1.4-.2.5-.1.1-.3.2-.5.2H88.8c-.2 0-.4-.1-.5-.2-.1-.1-.2-.3-.2-.5v-2.3c0-.7.3-1.2.8-1.6l8.1-5.8c.6-.4 1-.8 1.1-1.2.2-.4.3-.8.3-1.2 0-.5-.2-.9-.5-1.4-.3-.5-.9-.7-1.8-.7-.6 0-1.1.1-1.4.4-.4.2-.6.5-.7.7-.1.2-.2.5-.4 1-.1.2-.2.4-.4.5-.2.1-.4.1-.7.1h-3.3c-.2 0-.3-.1-.4-.2-.1-.1-.2-.3-.2-.4 0-1.1.3-2.1.9-3 .6-1 1.4-1.8 2.5-2.4 1.1-.6 2.5-.9 4.1-.9 1.5 0 2.9.3 4 .9 1.1.6 1.9 1.4 2.5 2.3.6 1 .9 2 .9 3.2 0 1.1-.2 2.1-.7 3-.5.9-1.3 1.8-2.6 2.7l-3.9 2.7zM127.7 63.7c0 1.1 0 1.9-.1 2.4-.1 2.1-.8 3.9-2.1 5.3s-3.2 2.1-5.8 2.1c-2.6 0-4.5-.7-5.8-2.1s-2-3.1-2.1-5.3c0-1-.1-1.8-.1-2.4 0-.6 0-1.4.1-2.4.1-2.1.8-3.9 2.1-5.3s3.2-2.1 5.8-2.1c2.6 0 4.5.7 5.8 2.1 1.3 1.4 2 3.1 2.1 5.3.1.5.1 1.3.1 2.4zm-5.8-4.6c-.4-.5-1.2-.8-2.2-.8-1 0-1.7.3-2.2.8-.4.6-.7 1.3-.7 2.3 0 1-.1 1.7-.1 2.2 0 .5 0 1.3.1 2.3 0 1 .3 1.8.7 2.3.4.6 1.2.8 2.2.8 1 0 1.7-.3 2.2-.8.4-.5.7-1.3.7-2.3 0-.5.1-1.3.1-2.3 0-1 0-1.8-.1-2.2 0-1-.3-1.7-.7-2.3zM143.8 68.8h6.8c.2 0 .4.1.5.2s.2.3.2.5v2.9c0 .2-.1.4-.2.5-.1.1-.3.2-.5.2h-14.3c-.2 0-.4-.1-.5-.2-.1-.1-.2-.3-.2-.5v-2.3c0-.7.3-1.2.8-1.6l8.1-5.8c.6-.4 1-.8 1.1-1.2.2-.4.3-.8.3-1.2 0-.5-.2-.9-.5-1.4s-.9-.7-1.8-.7c-.6 0-1.1.1-1.4.4-.4.2-.6.5-.7.7-.1.2-.2.5-.4 1-.1.2-.2.4-.4.5-.2.1-.4.1-.7.1h-3.3c-.2 0-.3-.1-.4-.2s-.2-.3-.2-.4c0-1.1.3-2.1.9-3 .6-1 1.4-1.8 2.5-2.4 1.1-.6 2.5-.9 4.1-.9 1.5 0 2.8.3 4 .9 1.1.6 1.9 1.4 2.5 2.3.6 1 .9 2 .9 3.2 0 1.1-.2 2.1-.7 3-.5.9-1.3 1.8-2.6 2.7l-3.9 2.7zM158.3 59.9c0-.3.1-.5.3-.6l5.8-4.5s.1-.1.3-.2c.2-.1.3-.2.5-.3.2-.1.3-.1.5-.1h3.3c.2 0 .4.1.5.2.1.1.2.3.2.5v17.5c0 .2-.1.4-.2.5-.1.1-.3.2-.5.2h-3.5c-.2 0-.4-.1-.5-.2-.1-.1-.2-.3-.2-.5V60.6l-3.2 2.4c-.1.1-.3.2-.5.2s-.4-.1-.6-.3l-2-2.6c-.1-.1-.2-.2-.2-.4z"/>
</svg>
