<?xml version="1.0" encoding="UTF-8"?>
<svg width="49px" height="43px" viewBox="0 0 49 43" version="1.1" xmlns="http://www.w3.org/2000/svg" xmlns:xlink="http://www.w3.org/1999/xlink">
    <!-- Generator: Sketch 53.2 (72643) - https://sketchapp.com -->
    <title>Group 3</title>
    <desc>Created with Sketch.</desc>
    <defs>
        <path d="M9.226,0.281 L39.63,0.281 L39.63,3.373 L43.972,3.373 C45.423,3.373 46.791,3.975 47.631,4.984 C48.171,5.633 48.462,6.397 48.477,7.188 L48.477,7.323 C48.474,7.509 48.455,7.695 48.421,7.882 C47.73,11.647 46.072,20.677 32.927,23.394 C32.547,23.861 32.158,24.325 31.747,24.778 C30.139,26.554 28.439,28.068 26.805,28.882 L26.805,31.608 C26.805,33.721 28.516,35.433 30.626,35.433 L30.626,38.839 L34.549,38.839 L34.549,42.244 L14.308,42.244 L14.308,38.839 L18.229,38.839 L18.229,35.433 C20.34,35.433 22.051,33.721 22.051,31.608 L22.051,28.882 C20.417,28.068 18.718,26.554 17.109,24.778 C16.698,24.325 16.309,23.861 15.93,23.394 C2.784,20.677 1.127,11.647 0.435,7.884 C0.4,7.693 0.382,7.503 0.379,7.313 L0.379,7.2 C0.391,6.405 0.681,5.636 1.225,4.984 C2.065,3.975 3.432,3.373 4.884,3.373 L9.226,3.373 L9.226,0.281 Z M39.576,6.68 C39.321,10.996 38.065,15.235 35.837,19.15 C43.505,16.282 44.573,10.51 45.166,7.285 C45.169,7.267 45.179,7.213 45.089,7.105 C44.928,6.91 44.538,6.685 43.972,6.685 L39.63,6.685 C39.612,6.685 39.594,6.681 39.576,6.68 Z M3.691,7.285 C4.282,10.51 5.35,16.282 13.018,19.15 C10.789,15.235 9.536,10.996 9.281,6.68 C9.262,6.681 9.245,6.685 9.226,6.685 L4.884,6.685 C4.317,6.685 3.929,6.91 3.766,7.105 C3.677,7.213 3.687,7.267 3.691,7.285 Z M28.8692566,13.2881 C28.2241107,12.6161 27.29573,12.1861 26.0851636,11.9981 L29.2049423,8.6091 L29.2049423,6.6331 L19.5288027,6.6331 L19.5288027,9.0801 L25.4127432,9.0801 L22.5699051,12.1491 L22.5699051,14.1631 L24.0311868,14.1631 C25.754723,14.1631 26.6180646,14.7031 26.6180646,15.7821 C26.6180646,16.3221 26.3872807,16.7391 25.9267619,17.0341 C25.4651941,17.3291 24.8336854,17.4761 24.0311868,17.4761 C23.3063156,17.4761 22.5982286,17.3731 21.9069259,17.1661 C21.2166722,16.9591 20.6071929,16.6671 20.081635,16.2901 L18.8375,18.6251 C19.4941851,19.0761 20.2945856,19.4251 21.2366036,19.6701 C22.1775725,19.9151 23.1353257,20.0371 24.1098632,20.0371 C25.3602923,20.0371 26.4166532,19.8421 27.2789457,19.4531 C28.1422873,19.0641 28.7842862,18.5471 29.2049423,17.9001 C29.6266474,17.2541 29.8375,16.5481 29.8375,15.7821 C29.8375,14.7911 29.5133535,13.9591 28.8692566,13.2881 Z" id="path-1"></path>
    </defs>
    <g id="Page-1" stroke="none" stroke-width="1" fill="none" fill-rule="evenodd">
        <g id="lp" transform="translate(-234.000000, -2400.000000)">
            <g id="Group-6" transform="translate(234.000000, 2400.000000)">
                <g id="Group-3">
                    <mask id="mask-2" fill="white">
                        <use xlink:href="#path-1"></use>
                    </mask>
                    <g id="Combined-Shape"></g>
                    <polygon id="Fill-1" fill="#FFFFFF" mask="url(#mask-2)" points="-2.306 44.928 51.162 44.928 51.162 -2.403 -2.306 -2.403"></polygon>
                </g>
            </g>
        </g>
    </g>
</svg>